<svg width="60" height="60" viewBox="0 0 60 60" fill="none" xmlns="http://www.w3.org/2000/svg">
<path d="M30.0191 23.6593C29.6615 24.0007 29.3467 24.303 29.0293 24.603C23.706 29.6358 18.3817 34.6685 13.0574 39.7003C12.2286 40.4837 10.9826 40.4544 10.2791 39.6377C9.67593 38.9367 9.73094 37.9626 10.4263 37.3019C11.8088 35.9874 13.198 34.6796 14.5846 33.3689C19.1641 29.0402 23.7513 24.7181 28.3151 20.3744C28.9952 19.7272 29.771 19.6545 30.6288 19.773C31.0191 19.8269 31.3232 20.0508 31.5993 20.3123C35.752 24.2395 39.9067 28.1643 44.0609 32.0896C45.8978 33.8254 47.7373 35.5589 49.5706 37.2981C50.2863 37.977 50.3251 39.0012 49.6776 39.6883C48.9695 40.4394 47.7745 40.4751 47.0042 39.7543C45.9477 38.7667 44.9019 37.77 43.8515 36.7771C39.2959 32.4709 34.7408 28.1652 30.1862 23.8581C30.1322 23.8076 30.0904 23.745 30.0191 23.6593Z" fill="#FABB63"/>
<circle cx="30" cy="30" r="28.5" stroke="#FABB63" stroke-width="3"/>
</svg>
