<svg width="708" height="175" viewBox="0 0 708 175" fill="none" xmlns="http://www.w3.org/2000/svg">
<path fill-rule="evenodd" clip-rule="evenodd" d="M53.5364 91.8045C53.5364 91.9452 53.5364 92.1292 53.5364 92.3782C53.5364 92.6163 53.5364 92.7895 53.5364 92.941V148.682C53.5364 150.652 52.9549 152.264 51.7812 153.52C50.6291 154.786 49.1324 155.414 47.3127 155.414C45.5037 155.414 43.9963 154.775 42.8442 153.52C41.6705 152.253 41.089 150.63 41.089 148.66V111.33L11.9412 151.766C10.1969 154.202 8.37717 155.414 6.48207 155.414C4.69466 155.414 3.15489 154.743 1.89509 153.422C0.635281 152.102 0 150.478 0 148.541C0 148.4 0.0215302 148.216 0.0538329 147.967C0.0861356 147.729 0.107674 147.556 0.107674 147.405V91.6746C0.107674 89.7048 0.699887 88.0921 1.86278 86.8366C3.01491 85.5702 4.52238 84.9425 6.33133 84.9425C8.15105 84.9425 9.63697 85.5702 10.7999 86.8366C11.9735 88.1029 12.555 89.7264 12.555 91.6963V129.037L41.7351 88.5467C43.4579 86.1439 45.2669 84.9316 47.1727 84.9316C48.9494 84.9316 50.4568 85.6027 51.6736 86.9448C52.9118 88.2869 53.5364 89.8888 53.5364 91.8045ZM104.101 148.671C104.101 150.641 103.519 152.264 102.346 153.531C101.194 154.797 99.6969 155.425 97.8772 155.425C96.0683 155.425 94.5608 154.786 93.4087 153.509C92.235 152.243 91.6535 150.619 91.6535 148.649V136.343H77.7957V148.649C77.7957 150.619 77.2142 152.243 76.0406 153.509C74.8884 154.786 73.3918 155.425 71.572 155.425C69.7631 155.425 68.2556 154.786 67.1035 153.531C65.9406 152.264 65.3484 150.641 65.3484 148.671V110.681C65.3484 108.711 65.9406 107.087 67.1035 105.821C68.2556 104.555 69.7631 103.927 71.572 103.927C73.3918 103.927 74.8884 104.555 76.0406 105.821C77.2142 107.087 77.7957 108.689 77.7957 110.67V122.9H91.6535V110.67C91.6535 108.7 92.235 107.087 93.4087 105.821C94.5608 104.555 96.0683 103.927 97.8772 103.927C99.6969 103.927 101.194 104.555 102.346 105.821C103.519 107.087 104.101 108.711 104.101 110.681V148.671ZM160.76 148.519C160.76 150.327 160.125 151.94 158.832 153.325C157.54 154.721 156.054 155.425 154.364 155.425C152.856 155.425 151.489 154.829 150.229 153.617L130.611 134.763C129.168 133.388 128.382 131.83 128.285 130.087V148.671C128.285 150.641 127.693 152.253 126.53 153.531C125.378 154.797 123.881 155.425 122.061 155.425C120.252 155.425 118.745 154.786 117.593 153.531C116.419 152.264 115.838 150.641 115.838 148.671V110.681C115.838 108.711 116.43 107.087 117.593 105.821C118.745 104.555 120.252 103.927 122.061 103.927C123.881 103.927 125.378 104.555 126.53 105.821C127.703 107.087 128.285 108.689 128.285 110.67V129.178C128.382 127.457 129.168 125.909 130.611 124.502L130.288 124.805C130.32 124.773 136.974 118.387 150.229 105.626C151.489 104.49 152.856 103.927 154.364 103.927C156.054 103.927 157.551 104.619 158.832 106.005C160.125 107.39 160.76 109.003 160.76 110.832C160.76 112.661 160.006 114.285 158.499 115.692L143.984 129.643L158.499 143.584C160.017 144.991 160.76 146.647 160.76 148.519ZM202.613 154.905C202.613 160.274 200.869 164.841 197.38 168.618C193.881 172.396 189.66 174.301 184.696 174.301C181.552 174.301 178.591 173.446 175.77 171.736C172.863 169.961 170.688 167.612 169.223 164.69C168.566 163.369 168.254 162.179 168.254 161.107C168.254 159.245 168.911 157.676 170.235 156.366C171.57 155.078 173.099 154.429 174.801 154.429C176.405 154.429 178.085 155.5 179.808 157.643C181.552 159.776 183.178 160.847 184.718 160.847C186.225 160.847 187.517 160.198 188.572 158.877C189.638 157.557 190.177 156.063 190.177 154.396C188.4 155.078 186.591 155.425 184.718 155.425C179.743 155.425 175.511 153.531 172.012 149.753C168.512 145.954 166.768 141.387 166.768 135.997V110.67C166.768 108.7 167.35 107.076 168.523 105.81C169.675 104.544 171.183 103.916 172.992 103.916C174.811 103.916 176.308 104.544 177.46 105.81C178.634 107.076 179.215 108.7 179.215 110.67V136.051C179.215 137.663 179.754 139.049 180.841 140.218C181.929 141.398 183.199 141.971 184.696 141.971C186.182 141.971 187.453 141.398 188.551 140.218C189.638 139.049 190.177 137.653 190.177 136.051V110.67C190.177 108.7 190.758 107.076 191.932 105.81C193.084 104.544 194.592 103.916 196.4 103.916C198.22 103.916 199.717 104.544 200.869 105.81C202.043 107.076 202.624 108.678 202.624 110.659V154.905H202.613ZM257.883 129.654C257.883 136.808 255.568 142.891 250.938 147.913C246.297 152.914 240.687 155.436 234.076 155.436C227.465 155.436 221.855 152.924 217.214 147.913C212.584 142.902 210.269 136.83 210.269 129.676C210.269 117.24 214.285 106.687 222.318 97.9955C230.372 89.3043 240.128 84.9425 251.627 84.9425C253.458 84.9425 254.944 85.5702 256.117 86.8366C257.291 88.0813 257.873 89.694 257.873 91.6638C257.873 93.612 257.291 95.2464 256.117 96.4911C254.944 97.7574 253.458 98.3852 251.627 98.3852C245.619 98.3852 240.138 100.225 235.228 103.916C241.603 104.262 246.976 106.903 251.337 111.871C255.708 116.817 257.883 122.749 257.883 129.654ZM245.436 129.687C245.436 126.277 244.338 123.376 242.12 120.995C239.934 118.603 237.253 117.413 234.087 117.413C230.921 117.413 228.251 118.603 226.054 120.995C223.847 123.376 222.738 126.277 222.738 129.687C222.738 133.107 223.847 136.007 226.054 138.399C228.251 140.781 230.932 141.982 234.087 141.982C237.253 141.982 239.934 140.791 242.12 138.399C244.327 136.018 245.436 133.107 245.436 129.687ZM297.723 148.671C297.723 150.641 297.142 152.264 295.968 153.531C294.795 154.797 293.309 155.425 291.478 155.425C289.766 155.425 288.334 154.829 287.16 153.639C285.168 154.829 282.703 155.425 279.795 155.425C274.756 155.425 270.567 153.942 267.24 150.955C263.655 147.74 261.867 143.476 261.867 138.129C261.867 132.782 263.655 128.518 267.262 125.292C270.578 122.305 274.767 120.822 279.817 120.822C281.841 120.822 283.672 121.093 285.276 121.623V121.212C285.276 119.567 284.738 118.17 283.672 117.034C282.616 115.876 281.324 115.302 279.817 115.302C278.729 115.302 277.286 116.006 275.51 117.402C273.755 118.787 272.193 119.48 270.869 119.48C269.394 119.48 268.091 118.971 266.971 117.965C265.787 116.893 265.184 115.594 265.184 114.047C265.184 112.586 265.83 111.103 267.122 109.62C270.438 105.821 274.648 103.927 279.795 103.927C284.77 103.927 288.98 105.821 292.479 109.609C295.979 113.408 297.713 117.976 297.713 123.366V148.671H297.723ZM285.276 138.129C285.276 136.505 284.738 135.109 283.672 133.951C282.606 132.793 281.314 132.219 279.806 132.219C278.299 132.219 277.007 132.804 275.941 133.951C274.875 135.109 274.336 136.495 274.336 138.129C274.336 139.763 274.875 141.149 275.941 142.307C277.017 143.465 278.299 144.038 279.806 144.038C281.314 144.038 282.606 143.465 283.672 142.307C284.738 141.149 285.276 139.752 285.276 138.129ZM342.269 110.637C342.269 112.586 341.687 114.22 340.514 115.465C339.361 116.731 337.854 117.359 336.045 117.359H329.111V148.66C329.111 150.652 328.54 152.275 327.388 153.541C326.236 154.786 324.728 155.425 322.887 155.425C321.078 155.425 319.571 154.786 318.419 153.531C317.245 152.264 316.663 150.641 316.663 148.671V117.369H309.751C307.92 117.369 306.434 116.742 305.261 115.475C304.087 114.231 303.505 112.607 303.505 110.648C303.505 108.678 304.087 107.066 305.261 105.821C306.434 104.555 307.92 103.927 309.729 103.927H336.045C337.854 103.927 339.34 104.555 340.514 105.821C341.687 107.066 342.269 108.667 342.269 110.637ZM393.813 129.676C393.813 136.83 391.509 142.902 386.868 147.913C382.227 152.914 376.628 155.436 370.006 155.436C363.395 155.436 357.785 152.924 353.155 147.913C348.514 142.902 346.21 136.83 346.21 129.676C346.21 122.521 348.525 116.449 353.155 111.438C357.785 106.427 363.395 103.916 370.006 103.916C376.617 103.916 382.227 106.427 386.868 111.438C391.498 116.439 393.813 122.511 393.813 129.676ZM381.355 129.676C381.355 126.256 380.246 123.344 378.039 120.941C375.842 118.56 373.161 117.359 370.006 117.359C366.84 117.359 364.17 118.549 361.973 120.941C359.766 123.344 358.657 126.256 358.657 129.676C358.657 133.096 359.766 135.997 361.973 138.399C364.17 140.781 366.84 141.982 370.006 141.982C373.172 141.982 375.842 140.791 378.039 138.399C380.257 135.997 381.355 133.085 381.355 129.676ZM449.223 129.676C449.223 136.83 446.919 142.902 442.278 147.913C437.637 152.914 432.016 155.436 425.405 155.436C421.367 155.436 417.588 154.364 414.067 152.253V167.569C414.067 169.538 413.485 171.151 412.312 172.407C411.16 173.673 409.663 174.301 407.843 174.301C406.034 174.301 404.527 173.662 403.375 172.407C402.201 171.14 401.62 169.528 401.62 167.569V110.67C401.62 108.7 402.201 107.087 403.375 105.821C404.548 104.555 406.034 103.927 407.865 103.927C410.492 103.927 412.355 105.107 413.442 107.455C417.136 105.107 421.141 103.927 425.427 103.927C432.038 103.927 437.648 106.438 442.289 111.449C446.908 116.439 449.223 122.511 449.223 129.676ZM436.765 129.676C436.765 126.256 435.656 123.344 433.448 120.941C431.252 118.56 428.582 117.359 425.416 117.359C422.25 117.359 419.58 118.549 417.383 120.941C415.176 123.344 414.067 126.256 414.067 129.676C414.067 133.096 415.176 135.997 417.383 138.399C419.569 140.781 422.25 141.982 425.416 141.982C428.582 141.982 431.263 140.791 433.448 138.399C435.656 135.997 436.765 133.085 436.765 129.676ZM500.412 110.821C500.412 110.962 500.391 111.168 500.358 111.406C500.304 111.644 500.294 111.839 500.294 111.969V148.693C500.294 150.662 499.712 152.275 498.538 153.531C497.386 154.797 495.89 155.425 494.059 155.425C492.25 155.425 490.743 154.786 489.591 153.531C488.417 152.264 487.836 150.641 487.836 148.671V128.626L468.788 152.124C467.011 154.332 465.234 155.436 463.436 155.436C461.649 155.436 460.12 154.764 458.882 153.412C457.622 152.059 457.008 150.435 457.008 148.519C457.008 148.389 457.029 148.195 457.051 147.957C457.083 147.718 457.105 147.524 457.105 147.383V110.681C457.105 108.711 457.686 107.098 458.86 105.832C460.012 104.565 461.52 103.938 463.328 103.938C465.159 103.938 466.645 104.565 467.797 105.832C468.971 107.109 469.552 108.722 469.552 110.713V130.769L488.665 107.185C490.42 105.02 492.196 103.927 493.984 103.927C495.782 103.927 497.3 104.598 498.538 105.951C499.788 107.293 500.412 108.927 500.412 110.821ZM549.071 91.7504C549.071 93.3414 548.177 95.2031 546.422 97.3028C542.233 102.238 537.969 104.695 533.63 104.695C528.742 104.695 524.251 101.784 520.171 95.9282C519.212 94.5537 518.728 93.1575 518.728 91.7288C518.728 89.8996 519.374 88.3302 520.666 86.9773C521.969 85.6243 523.476 84.9316 525.199 84.9316C526.717 84.9316 528.515 86.0032 530.529 88.1137C532.564 90.246 533.63 91.2958 533.759 91.2958C533.964 91.2958 535.084 90.246 537.108 88.1137C539.143 86.0032 540.93 84.9316 542.449 84.9316C544.171 84.9316 545.69 85.6243 547.036 86.9773C548.403 88.341 549.071 89.9212 549.071 91.7504ZM555.52 110.821C555.52 108.927 554.907 107.304 553.658 105.94C552.419 104.587 550.89 103.916 549.103 103.916C547.305 103.916 545.528 104.998 543.773 107.174L524.661 130.758V110.702C524.661 108.711 524.079 107.098 522.905 105.821C521.753 104.555 520.257 103.927 518.437 103.927C516.628 103.927 515.131 104.555 513.968 105.821C512.806 107.087 512.213 108.689 512.213 110.67V147.372C512.213 147.513 512.203 147.718 512.17 147.946C512.138 148.184 512.116 148.379 512.116 148.509C512.116 150.424 512.73 152.048 513.99 153.401C515.228 154.754 516.746 155.425 518.545 155.425C520.343 155.425 522.119 154.321 523.896 152.113L542.944 128.615V148.66C542.944 150.63 543.525 152.253 544.699 153.52C545.851 154.786 547.369 155.414 549.178 155.414C550.998 155.414 552.495 154.775 553.647 153.52C554.821 152.253 555.402 150.652 555.402 148.682V111.958C555.402 111.828 555.424 111.633 555.467 111.395C555.499 111.168 555.52 110.962 555.52 110.821Z" fill="#FFD000"/>
<path fill-rule="evenodd" clip-rule="evenodd" d="M53.5364 6.86206C53.5364 7.00276 53.5364 7.18676 53.5364 7.44652C53.5364 7.67382 53.5364 7.85782 53.5364 7.99852V63.7392C53.5364 65.7091 52.9549 67.3218 51.7812 68.5773C50.6291 69.8436 49.1324 70.4714 47.3127 70.4714C45.5037 70.4714 43.9963 69.8436 42.8442 68.5773C41.6705 67.311 41.089 65.6874 41.089 63.7176V26.3984L11.9412 66.8347C10.2077 69.27 8.37717 70.4822 6.48208 70.4822C4.69466 70.4822 3.14413 69.8112 1.89509 68.4907C0.635287 67.1702 0 65.5359 0 63.6093C0 63.4686 0.0215353 63.2846 0.0538381 63.0249C0.0861408 62.7976 0.0969083 62.6136 0.0969083 62.4621V6.743C0.0969083 4.77314 0.689125 3.17127 1.85202 1.90492C3.02569 0.638583 4.53315 0 6.3421 0C8.16182 0 9.65851 0.638583 10.8106 1.8941C11.9843 3.16044 12.5658 4.78396 12.5658 6.75382V44.0947L41.7459 3.6042C43.4687 1.2014 45.2669 0 47.1835 0C48.9494 0 50.4676 0.671053 51.6843 2.00234C52.9226 3.34444 53.5364 4.95713 53.5364 6.86206ZM95.8744 53.1972C95.8744 58.1652 94.1516 62.3322 90.6845 65.6874C87.3358 68.8803 83.3195 70.493 78.6679 70.493C73.9947 70.493 69.9784 68.8803 66.6405 65.6874C63.1626 62.3214 61.4182 58.1652 61.4182 53.1755C61.4182 51.2057 62.0104 49.5822 63.1733 48.3158C64.3255 47.0495 65.8329 46.4217 67.6419 46.4217C69.4724 46.4217 70.9583 47.0495 72.1104 48.3375C73.2841 49.6146 73.8655 51.249 73.8655 53.2188C73.8655 54.3986 74.4147 55.3294 75.5237 56.0762C76.4605 56.7365 77.4942 57.0612 78.6571 57.0612C79.8092 57.0612 80.8644 56.7365 81.8012 56.0762C82.8672 55.3402 83.4056 54.3986 83.4056 53.2188C83.4056 52.0283 82.8672 51.065 81.8012 50.329C80.8644 49.6796 79.82 49.3549 78.6679 49.3549C75.7929 49.3549 74.3716 47.1144 74.3716 42.6335C74.3716 38.1526 75.7929 35.9122 78.6571 35.9122C80.3476 35.9122 81.1982 35.3277 81.1982 34.1804C81.1982 33.0223 80.3476 32.4487 78.6248 32.4487C77.2896 32.4487 76.4605 33.0115 76.1806 34.1155C75.7283 35.923 75.4268 36.9404 75.2438 37.1785C74.4039 38.2825 72.6165 38.8128 69.8492 38.8128C65.7037 38.8128 63.6256 37.2759 63.6256 34.1912C63.6256 29.8619 65.1438 26.2252 68.1803 23.2812C71.1306 20.4346 74.6085 19.0168 78.6571 19.0168C82.7057 19.0168 86.1836 20.4346 89.1016 23.2812C92.1273 26.2252 93.6563 29.8727 93.6563 34.1912C93.6563 36.9729 92.9887 39.5272 91.6536 41.8326C94.4747 45.0363 95.8744 48.8354 95.8744 53.1972ZM147.365 44.7333C147.365 51.8876 145.05 57.9595 140.42 62.9708C135.779 67.9712 130.169 70.4822 123.558 70.4822C116.947 70.4822 111.337 67.9712 106.696 62.9708C102.055 57.9595 99.7508 51.8876 99.7508 44.7333C99.7508 37.579 102.066 31.507 106.696 26.4958C111.337 21.4953 116.936 18.9843 123.558 18.9843C130.169 18.9843 135.779 21.4953 140.42 26.4958C145.061 31.507 147.365 37.579 147.365 44.7333ZM134.918 44.7333C134.918 41.3131 133.819 38.4124 131.601 35.9987C129.405 33.6176 126.724 32.4162 123.569 32.4162C120.403 32.4162 117.733 33.6176 115.536 35.9987C113.329 38.4016 112.22 41.3131 112.22 44.7333C112.22 48.1427 113.329 51.0541 115.536 53.457C117.733 55.8381 120.403 57.0395 123.569 57.0395C126.734 57.0395 129.415 55.8381 131.601 53.457C133.809 51.0541 134.918 48.1427 134.918 44.7333ZM198.855 44.7116C198.855 51.8659 196.54 57.9487 191.91 62.9708C187.28 67.9712 181.67 70.4822 175.059 70.4822C168.448 70.4822 162.838 67.9712 158.197 62.9708C153.556 57.9595 151.252 51.8876 151.252 44.7333C151.252 32.2971 155.268 21.7443 163.301 13.0531C171.355 4.36185 181.111 0 192.61 0C194.43 0 195.927 0.638583 197.1 1.8941C198.274 3.1388 198.855 4.75149 198.855 6.72135C198.855 8.66957 198.274 10.2931 197.1 11.5486C195.927 12.8041 194.441 13.4427 192.61 13.4427C186.602 13.4427 181.132 15.2935 176.201 18.9735C182.575 19.3198 187.948 21.9499 192.309 26.9287C196.68 31.8858 198.855 37.8063 198.855 44.7116ZM186.408 44.7549C186.408 41.3347 185.299 38.4449 183.092 36.0529C180.895 33.6717 178.214 32.4703 175.059 32.4703C171.893 32.4703 169.212 33.6717 167.027 36.0529C164.819 38.434 163.71 41.3347 163.71 44.7549C163.71 48.1643 164.808 51.0758 167.027 53.457C169.212 55.8381 171.893 57.0395 175.059 57.0395C178.225 57.0395 180.906 55.8381 183.092 53.457C185.299 51.0758 186.408 48.1643 186.408 44.7549ZM250.066 25.8788C250.066 26.0195 250.045 26.2252 250.012 26.4525C249.958 26.6906 249.948 26.8962 249.948 27.0153V63.75C249.948 65.7199 249.355 67.3326 248.192 68.5881C247.04 69.8545 245.544 70.4822 243.724 70.4822C241.915 70.4822 240.408 69.8545 239.255 68.5881C238.082 67.3218 237.5 65.6983 237.5 63.7284V43.6834L218.452 67.1811C216.676 69.3891 214.899 70.493 213.09 70.493C211.303 70.493 209.774 69.822 208.536 68.4691C207.276 67.1161 206.662 65.4926 206.662 63.5769C206.662 63.447 206.683 63.2522 206.716 63.014C206.748 62.7868 206.77 62.5811 206.77 62.4404V25.7165C206.77 23.7466 207.351 22.1448 208.525 20.8784C209.677 19.6121 211.184 18.9843 212.993 18.9843C214.813 18.9843 216.31 19.6121 217.462 20.8784C218.636 22.1556 219.217 23.7683 219.217 25.7598V45.8156L238.329 22.2313C240.084 20.0667 241.861 18.9735 243.649 18.9735C245.436 18.9735 246.965 19.6445 248.203 20.9866C249.442 22.3504 250.066 23.9847 250.066 25.8788ZM310.041 63.8258C310.041 65.655 309.374 67.2135 308.049 68.5232C306.714 69.8436 305.185 70.493 303.484 70.493C301.212 70.493 299.468 69.3133 298.251 66.9538L283.941 39.4622L269.631 66.9321C268.414 69.3025 266.67 70.493 264.408 70.493C262.696 70.493 261.178 69.8436 259.854 68.5556C258.529 67.2568 257.862 65.6874 257.862 63.8258C257.862 62.6677 258.163 61.5096 258.766 60.3515L277.954 23.5518C279.558 20.4888 281.572 18.9735 283.962 18.9735C286.353 18.9735 288.345 20.5104 289.971 23.5951L309.115 60.3407C309.729 61.5529 310.041 62.7218 310.041 63.8258ZM352.304 53.1755C352.304 58.1543 350.581 62.3105 347.114 65.655C343.787 68.8912 339.771 70.493 335.076 70.493L324.093 70.4606C322.435 70.4606 320.981 69.7679 319.721 68.4366C318.462 67.0837 317.848 65.5034 317.848 63.6959V25.7165C317.848 23.7683 318.44 22.1448 319.603 20.8784C320.755 19.6121 322.263 18.9843 324.072 18.9843C325.891 18.9843 327.388 19.6121 328.54 20.8784C329.714 22.1448 330.295 23.7683 330.295 25.7381V35.9013H335.033C339.674 35.9013 343.679 37.514 347.05 40.7502C350.571 44.073 352.304 48.2292 352.304 53.1755ZM339.857 53.1755C339.857 52.0066 339.318 51.065 338.231 50.3182C337.294 49.6688 336.239 49.344 335.087 49.344H330.317V57.0503H335.087C336.239 57.0503 337.294 56.7256 338.231 56.0654C339.318 55.3186 339.857 54.3661 339.857 53.1755ZM398.831 63.7284C398.831 65.6983 398.249 67.3218 397.076 68.5881C395.924 69.8545 394.427 70.4822 392.607 70.4822C390.798 70.4822 389.291 69.8545 388.139 68.5665C386.965 67.3001 386.383 65.6766 386.383 63.7067V51.4005H372.526V63.7067C372.526 65.6766 371.944 67.3001 370.77 68.5665C369.618 69.8545 368.122 70.4822 366.302 70.4822C364.493 70.4822 362.986 69.8545 361.833 68.5881C360.66 67.3218 360.078 65.6983 360.078 63.7284V25.7273C360.078 23.7574 360.66 22.1339 361.833 20.8676C362.986 19.6012 364.493 18.9735 366.302 18.9735C368.122 18.9735 369.618 19.6012 370.77 20.8676C371.944 22.1339 372.526 23.7466 372.526 25.7057V37.947H386.383V25.7165C386.383 23.7466 386.965 22.1448 388.139 20.8784C389.291 19.6121 390.798 18.9843 392.607 18.9843C394.427 18.9843 395.924 19.6121 397.076 20.8784C398.249 22.1448 398.831 23.7683 398.831 25.7381V63.7284ZM451.98 54.0198C451.98 55.0696 451.656 56.2602 451.043 57.5807C449.212 61.4663 446.327 64.6159 442.375 67.0187C438.595 69.3349 434.611 70.493 430.434 70.493C423.833 70.493 418.212 67.982 413.593 62.9816C408.952 57.9703 406.648 51.8984 406.648 44.7441C406.648 37.5898 408.963 31.5178 413.593 26.5066C418.212 21.5062 423.833 18.9951 430.434 18.9951C436.614 18.9951 442.235 21.5386 447.317 26.6257C450.364 29.667 451.893 32.676 451.893 35.6849C451.893 37.9903 450.86 39.787 448.76 41.0966L425.405 55.6216C426.999 56.5849 428.668 57.072 430.423 57.072C433.136 57.072 435.376 56.2386 437.163 54.5501C438.391 53.0348 439.608 51.5196 440.803 50.0151C442.439 48.2509 443.979 47.3525 445.433 47.3525C447.156 47.3525 448.663 48.0236 449.987 49.3224C451.312 50.6212 451.98 52.2014 451.98 54.0198ZM435.537 33.7799C433.944 32.8816 432.253 32.427 430.444 32.427C427.462 32.427 424.878 33.531 422.681 35.7606C420.506 37.9794 419.332 40.7178 419.181 43.9648L435.537 33.7799ZM498.56 63.7284C498.56 65.6983 497.979 67.3218 496.805 68.5881C495.653 69.8545 494.156 70.4822 492.336 70.4822C490.527 70.4822 489.02 69.8545 487.868 68.5665C486.694 67.3001 486.113 65.6766 486.113 63.7067V51.4005H472.255V63.7067C472.255 65.6766 471.673 67.3001 470.5 68.5665C469.348 69.8545 467.862 70.4822 466.031 70.4822C464.222 70.4822 462.715 69.8545 461.563 68.5881C460.389 67.3218 459.808 65.6983 459.808 63.7284V25.7273C459.808 23.7574 460.4 22.1339 461.563 20.8676C462.715 19.6012 464.222 18.9735 466.031 18.9735C467.862 18.9735 469.348 19.6012 470.5 20.8676C471.673 22.1339 472.255 23.7466 472.255 25.7057V37.947H486.113V25.7165C486.113 23.7466 486.705 22.1448 487.868 20.8784C489.02 19.6121 490.527 18.9843 492.336 18.9843C494.156 18.9843 495.653 19.6121 496.805 20.8784C497.979 22.1448 498.56 23.7683 498.56 25.7381V63.7284ZM548.941 31.1931C548.941 33.044 548.306 34.6458 547.014 36.0529C545.722 37.4599 544.225 38.1526 542.546 38.1526C541.555 38.1526 539.8 37.211 537.302 35.2952C534.804 33.3795 532.435 32.4162 530.152 32.4162C527.008 32.4162 524.327 33.6176 522.13 35.9987C519.944 38.4016 518.835 41.3131 518.835 44.7333C518.835 48.1427 519.944 51.0541 522.13 53.457C524.327 55.8381 527.008 57.0395 530.152 57.0395C532.424 57.0395 534.782 56.0762 537.28 54.1388C539.757 52.2123 541.501 51.249 542.492 51.249C544.182 51.249 545.668 51.9525 546.96 53.3487C548.252 54.7341 548.898 56.3685 548.898 58.1868C548.898 59.7995 548.242 61.3797 546.939 62.9383C542.75 67.9604 537.162 70.4714 530.163 70.4714C523.573 70.4714 517.942 67.9604 513.322 62.9599C508.692 57.9487 506.377 51.8767 506.377 44.7224C506.377 37.5681 508.692 31.4962 513.322 26.4849C517.942 21.4845 523.573 18.9735 530.163 18.9735C537.162 18.9735 542.761 21.4629 546.982 26.4741C548.285 28.0327 548.941 29.6021 548.941 31.1931ZM601.681 63.5769C601.681 65.3844 601.046 66.9971 599.764 68.3825C598.461 69.7787 596.986 70.4822 595.285 70.4822C593.778 70.4822 592.41 69.8869 591.15 68.6747L571.543 49.8311C570.1 48.4565 569.314 46.898 569.206 45.1446V63.7284C569.206 65.6983 568.625 67.3001 567.451 68.5881C566.299 69.8545 564.802 70.4822 562.982 70.4822C561.173 70.4822 559.666 69.8545 558.514 68.5881C557.34 67.3218 556.759 65.6983 556.759 63.7284V25.7273C556.759 23.7574 557.34 22.1339 558.514 20.8676C559.666 19.6012 561.173 18.9735 562.982 18.9735C564.802 18.9735 566.299 19.6012 567.451 20.8676C568.625 22.1339 569.206 23.7466 569.206 25.7057V44.2137C569.314 42.4928 570.1 40.9451 571.543 39.538L571.23 39.8411C571.263 39.7978 577.906 33.4228 591.161 20.6619C592.421 19.5255 593.788 18.9627 595.296 18.9627C596.997 18.9627 598.472 19.6445 599.775 21.0408C601.056 22.437 601.692 24.0389 601.692 25.868C601.692 27.6972 600.949 29.3207 599.431 30.7277L584.916 44.69L599.42 58.6306C600.927 60.0592 601.681 61.7044 601.681 63.5769ZM652.892 25.8788C652.892 26.0195 652.881 26.2252 652.849 26.4525C652.795 26.6906 652.784 26.8962 652.784 27.0153V63.75C652.784 65.7199 652.192 67.3326 651.018 68.5881C649.866 69.8545 648.369 70.4822 646.549 70.4822C644.74 70.4822 643.233 69.8545 642.081 68.5881C640.907 67.3218 640.315 65.6983 640.315 63.7284V43.6834L621.267 67.1811C619.501 69.3891 617.725 70.493 615.916 70.493C614.117 70.493 612.599 69.822 611.361 68.4691C610.112 67.1161 609.487 65.4926 609.487 63.5769C609.487 63.447 609.498 63.2522 609.541 63.014C609.574 62.7868 609.595 62.5811 609.595 62.4404V25.7165C609.595 23.7466 610.177 22.1448 611.35 20.8784C612.502 19.6121 614.01 18.9843 615.819 18.9843C617.639 18.9843 619.135 19.6121 620.287 20.8784C621.461 22.1556 622.053 23.7683 622.053 25.7598V45.8156L641.166 22.2313C642.921 20.0667 644.697 18.9735 646.485 18.9735C648.283 18.9735 649.801 19.6445 651.029 20.9866C652.267 22.3504 652.892 23.9847 652.892 25.8788ZM701.55 6.81877C701.55 8.39899 700.667 10.2714 698.912 12.3712C694.724 17.2959 690.46 19.7636 686.12 19.7636C681.232 19.7636 676.742 16.8629 672.661 10.9966C671.713 9.62204 671.218 8.23664 671.218 6.80794C671.218 4.97878 671.875 3.40938 673.156 2.05645C674.459 0.703523 675.966 0.0216469 677.689 0.0216469C679.218 0.0216469 681.006 1.08234 683.03 3.20374C685.054 5.33595 686.131 6.38583 686.26 6.38583C686.465 6.38583 687.574 5.33595 689.598 3.20374C691.633 1.0607 693.431 0 694.96 0C696.683 0 698.212 0.681877 699.547 2.03481C700.883 3.39856 701.55 4.97878 701.55 6.81877ZM708 25.8788C708 23.9739 707.375 22.3504 706.137 20.9975C704.888 19.6445 703.37 18.9843 701.582 18.9843C699.795 18.9843 698.018 20.0667 696.263 22.2422L677.151 45.8264V25.7598C677.151 23.7683 676.569 22.1664 675.396 20.8784C674.244 19.6121 672.747 18.9843 670.916 18.9843C669.107 18.9843 667.6 19.6121 666.448 20.8784C665.274 22.1448 664.693 23.7574 664.693 25.7165V62.4296C664.693 62.5703 664.671 62.7759 664.639 63.0032C664.607 63.2413 664.585 63.4362 664.585 63.566C664.585 65.4818 665.21 67.1053 666.459 68.4582C667.697 69.8112 669.226 70.4822 671.013 70.4822C672.822 70.4822 674.588 69.3782 676.376 67.1702L695.423 43.6726V63.7284C695.423 65.6983 696.005 67.3218 697.179 68.5881C698.331 69.8545 699.838 70.4822 701.647 70.4822C703.478 70.4822 704.964 69.8545 706.126 68.5881C707.289 67.3218 707.882 65.7091 707.882 63.75V27.0261C707.882 26.8962 707.892 26.7014 707.946 26.4633C707.978 26.2252 708 26.0195 708 25.8788Z" fill="#FFD000"/>
</svg>
