<svg width="7" height="14" viewBox="0 0 7 14" fill="none" xmlns="http://www.w3.org/2000/svg">
<path d="M5.66006 7.00671C5.54376 6.8824 5.44075 6.77297 5.33855 6.66265C3.62406 4.81217 1.90957 2.96133 0.195405 1.1105C-0.0714798 0.822387 -0.0614737 0.389251 0.216729 0.144704C0.455564 -0.0649581 0.787406 -0.0458335 1.01246 0.19588C1.46028 0.676474 1.9058 1.15937 2.3523 1.64138C3.82697 3.23332 5.29935 4.82793 6.77911 6.41438C6.99957 6.65078 7.02434 6.92047 6.98398 7.21868C6.96561 7.35432 6.88934 7.46004 6.80027 7.55601C5.4624 8.99956 4.12535 10.4438 2.78814 11.8879C2.19679 12.5265 1.60627 13.1659 1.01377 13.8032C0.782485 14.052 0.433583 14.0655 0.199506 13.8404C-0.0563886 13.5942 -0.0685272 13.1788 0.177033 12.9111C0.513468 12.5438 0.85302 12.1803 1.19126 11.8151C2.65822 10.2315 4.12502 8.64806 5.59231 7.06479C5.60954 7.04602 5.63086 7.0315 5.66006 7.00671Z" fill="black"/>
</svg>
